<?xml version="1.0" encoding="UTF-8" standalone="no"?>
<!-- Created with Inkscape (http://www.inkscape.org/) -->

<svg
   xmlns:dc="http://purl.org/dc/elements/1.1/"
   xmlns:cc="http://creativecommons.org/ns#"
   xmlns:rdf="http://www.w3.org/1999/02/22-rdf-syntax-ns#"
   xmlns:svg="http://www.w3.org/2000/svg"
   xmlns="http://www.w3.org/2000/svg"
   xmlns:sodipodi="http://sodipodi.sourceforge.net/DTD/sodipodi-0.dtd"
   xmlns:inkscape="http://www.inkscape.org/namespaces/inkscape"
   width="309mm"
   height="91mm"
   viewBox="0 0 309 91"
   version="1.1"
   id="svg8"
   inkscape:version="0.92.2 (5c3e80d, 2017-08-06)"
   sodipodi:docname="img1.svg">
  <defs
     id="defs2">
    <inkscape:path-effect
       effect="skeletal"
       id="path-effect5998"
       is_visible="true"
       pattern="M 0,5 C 0,2.24 2.24,0 5,0 7.76,0 10,2.24 10,5 10,7.76 7.76,10 5,10 2.24,10 0,7.76 0,5 Z"
       copytype="single_stretched"
       prop_scale="0.26458334"
       scale_y_rel="false"
       spacing="0"
       normal_offset="0"
       tang_offset="0"
       prop_units="false"
       vertical_pattern="false"
       fuse_tolerance="0" />
    <inkscape:path-effect
       effect="skeletal"
       id="path-effect5994"
       is_visible="true"
       pattern="M 0,5 C 0,2.24 2.24,0 5,0 7.76,0 10,2.24 10,5 10,7.76 7.76,10 5,10 2.24,10 0,7.76 0,5 Z"
       copytype="single_stretched"
       prop_scale="0.26458334"
       scale_y_rel="false"
       spacing="0"
       normal_offset="0"
       tang_offset="0"
       prop_units="false"
       vertical_pattern="false"
       fuse_tolerance="0" />
    <inkscape:path-effect
       effect="skeletal"
       id="path-effect5990"
       is_visible="true"
       pattern="M 0,5 C 0,2.24 2.24,0 5,0 7.76,0 10,2.24 10,5 10,7.76 7.76,10 5,10 2.24,10 0,7.76 0,5 Z"
       copytype="single_stretched"
       prop_scale="0.26458334"
       scale_y_rel="false"
       spacing="0"
       normal_offset="0"
       tang_offset="0"
       prop_units="false"
       vertical_pattern="false"
       fuse_tolerance="0" />
    <inkscape:path-effect
       effect="skeletal"
       id="path-effect5986"
       is_visible="true"
       pattern="M 0,5 C 0,2.24 2.24,0 5,0 7.76,0 10,2.24 10,5 10,7.76 7.76,10 5,10 2.24,10 0,7.76 0,5 Z"
       copytype="single_stretched"
       prop_scale="0.26458334"
       scale_y_rel="false"
       spacing="0"
       normal_offset="0"
       tang_offset="0"
       prop_units="false"
       vertical_pattern="false"
       fuse_tolerance="0" />
    <inkscape:perspective
       id="perspective2895"
       inkscape:persp3d-origin="372.04722 : 350.78746 : 1"
       inkscape:vp_z="744.09443 : 526.18111 : 1"
       inkscape:vp_y="0 : 1000.0001 : 0"
       inkscape:vp_x="0 : 526.18111 : 1"
       sodipodi:type="inkscape:persp3d" />
    <inkscape:perspective
       sodipodi:type="inkscape:persp3d"
       inkscape:vp_x="0 : 0.50000003 : 1"
       inkscape:vp_y="0 : 1000.0001 : 0"
       inkscape:vp_z="0.99999995 : 0.50000003 : 1"
       inkscape:persp3d-origin="0.49999993 : 0.3333334 : 1"
       id="perspective2905" />
  </defs>
  <sodipodi:namedview
     id="base"
     pagecolor="#ffffff"
     bordercolor="#666666"
     borderopacity="1.0"
     inkscape:pageopacity="0"
     inkscape:pageshadow="2"
     inkscape:zoom="1.0891622"
     inkscape:cx="569.56721"
     inkscape:cy="251.5"
     inkscape:document-units="mm"
     inkscape:current-layer="layer1"
     showgrid="true"
     inkscape:snap-bbox="true"
     showborder="true"
     inkscape:pagecheckerboard="true"
     height="209mm"
     inkscape:window-width="1920"
     inkscape:window-height="1046"
     inkscape:window-x="-11"
     inkscape:window-y="-11"
     inkscape:window-maximized="1">
    <inkscape:grid
       type="xygrid"
       id="grid10" />
  </sodipodi:namedview>
  <metadata
     id="metadata5">
    <rdf:RDF>
      <cc:Work
         rdf:about="">
        <dc:format>image/svg+xml</dc:format>
        <dc:type
           rdf:resource="http://purl.org/dc/dcmitype/StillImage" />
        <dc:title></dc:title>
      </cc:Work>
    </rdf:RDF>
  </metadata>
  <g
     inkscape:label="Layer 1"
     inkscape:groupmode="layer"
     id="layer1"
     transform="translate(0,-206)">
    <path
       style="fill:#ffffff;stroke-width:0.26458332"
       d="m 15.874999,211.01042 v 68.79166 h 52.916667 v -68.79166 z m 26.458334,9.26041 c 8.763,0 15.875,0.59267 15.875,1.32292 0,0.73025 -7.112,1.32292 -15.875,1.32292 -8.763,0 -15.875,-0.59267 -15.875,-1.32292 0,-0.73025 7.112,-1.32292 15.875,-1.32292 z m 0,15.875 c 11.684002,0 21.166666,0.59267 21.166666,1.32292 0,0.73025 -9.482664,1.32291 -21.166666,1.32291 -11.684003,0 -21.166667,-0.59266 -21.166667,-1.32291 0,-0.73025 9.482664,-1.32292 21.166667,-1.32292 z m -3.96875,5.29167 c 8.03275,0 14.552083,0.59266 14.552083,1.32291 0,0.73025 -6.519333,1.32292 -14.552083,1.32292 -8.03275,0 -14.552083,-0.59267 -14.552083,-1.32292 0,-0.73025 6.519333,-1.32291 14.552083,-1.32291 z m 2.645833,5.29166 c 9.493253,0 17.197917,0.59267 17.197917,1.32292 0,0.73025 -7.704664,1.32292 -17.197917,1.32292 -9.493252,0 -17.197916,-0.59267 -17.197916,-1.32292 0,-0.73025 7.704664,-1.32292 17.197916,-1.32292 z m 16.156636,16.9261 2.725933,5.25136 5.112867,-1.25729 -4.151686,4.21525 2.77554,4.47415 -5.291667,-2.64584 -3.397723,4.02198 0.881084,-5.85029 -4.875157,-1.98851 5.836338,-0.96945 z"
       id="rect3701"
       inkscape:connector-curvature="0" />
    <path
       style="fill:#ffffff;fill-opacity:1;stroke-width:0.33033416"
       d="m 171.94596,238.56571 c -0.16243,0.002 -0.32513,0.01 -0.48756,0.0198 v -6.3e-4 c -2.59888,0.17093 -5.17799,1.41207 -7.11497,3.68234 l -1.54942,1.8161 -2.41492,0.006 c -2.23324,0.006 -2.46594,-0.0583 -3.09884,-0.85481 -2.63519,-3.31617 -5.09744,-4.63711 -8.6032,-4.61639 -3.15467,0.0187 -4.41074,0.67839 -8.19096,4.30442 -3.77047,3.61671 -3.86468,3.90685 -1.86415,5.7417 0.60658,0.55632 1.61985,1.83044 2.25219,2.83125 1.293,2.0464 3.04538,3.28042 5.49695,3.87235 v 0.001 c 2.69627,0.65102 6.40599,-0.0192 8.35774,-1.50908 1.28896,-0.98396 3.10738,-3.59777 3.60993,-5.18896 0.63594,-2.01346 1.24948,-2.68616 2.28177,-2.50317 0.91675,0.16249 1.16462,0.50852 1.81035,2.52978 1.11701,3.49646 3.99741,6.0669 7.67313,6.84784 1.47922,0.31427 2.15339,0.29068 4.05984,-0.14237 2.91641,-0.66243 4.58689,-1.87576 6.17078,-4.48269 0.67892,-1.11739 1.61078,-2.30394 2.07061,-2.63687 1.57902,-1.14325 1.45954,-1.96177 -0.56893,-3.89899 -1.00483,-0.95963 -2.42045,-2.3364 -3.14592,-3.06026 -1.88893,-1.88471 -4.30799,-2.79291 -6.74442,-2.7582 z m -0.14661,1.13398 c 3.498,0 6.08907,1.47329 7.50166,4.26543 1.85516,3.66694 0.21528,8.19126 -3.61195,9.96504 -5.92014,2.74373 -12.80885,-1.69295 -11.94415,-7.69275 0.58138,-4.03402 3.66658,-6.53772 8.05444,-6.53772 z m -23.13508,0.01 c 0.22922,-9e-4 0.46303,0.005 0.70141,0.0161 1.90694,0.0913 2.71897,0.29787 3.89037,0.98914 1.63653,0.96576 3.51243,3.40694 3.51243,4.5712 0,0.41193 0.12831,0.67604 0.28514,0.5868 0.50906,-0.28958 -0.25793,3.5862 -0.96032,4.85347 -0.90718,1.63672 -2.89714,3.10597 -4.9825,3.67862 -2.16265,0.59388 -2.70564,0.57744 -5.01612,-0.15289 -4.58219,-1.44841 -6.76159,-6.24165 -4.69466,-10.32715 1.4185,-2.80383 3.8261,-4.20192 7.26425,-4.21528 z"
       id="path6179"
       inkscape:connector-curvature="0" />
    <path
       style="fill:#ffffff;fill-opacity:1;stroke-width:0.40335223"
       d="m 165.92487,258.6145 c -1.28661,-0.007 -3.76738,1.27779 -4.63885,2.4013 l -0.74176,0.9561 -1.65299,-1.43876 c -3.49688,-3.0433 -5.53576,-2.48508 -10.27904,2.81385 -4.66976,5.21679 -5.49309,5.84364 -7.70407,5.87131 -1.54786,0.0195 -1.96673,-0.16198 -2.5158,-1.09176 -0.36234,-0.61352 -0.65837,-1.57614 -0.65837,-2.13922 0,-1.30152 0.88978,-3.06054 1.84398,-3.64349 0.57052,-0.34855 0.42771,-0.39666 -0.63081,-0.21411 -1.43828,0.24803 -2.41864,1.49051 -2.68526,3.40447 -0.21853,1.56883 0.64576,4.53129 1.64223,5.62861 1.05312,1.15969 3.60588,2.47548 5.91323,3.04826 2.15492,0.53492 6.15828,0.1953 8.80964,-0.74753 2.37968,-0.84622 5.90502,-3.1397 7.05714,-4.59131 l 0.77471,-0.9764 0.77471,0.99486 c 1.07976,1.38707 4.67374,3.76247 6.89439,4.55624 9.40581,3.36204 18.50743,-1.92796 16.05037,-9.32841 -0.41834,-1.26 -1.63234,-2.20458 -2.81908,-2.19368 -0.72894,0.007 -0.72434,0.0304 0.10294,0.60451 1.26981,0.88137 1.88411,2.90518 1.38466,4.55989 -0.67909,2.24991 -2.49317,2.9016 -4.85405,1.74332 -1.24432,-0.6105 -6.27031,-5.60384 -7.21113,-7.16428 -0.68254,-1.132 -3.72953,-3.04806 -4.85674,-3.05377 z"
       id="path6073"
       inkscape:connector-curvature="0" />
    <g
       id="layer1-9"
       inkscape:label="Calque 1"
       transform="matrix(0.09524447,0,0,0.09524447,242.1431,194.19771)"
       style="fill:#ffffff">
      <path
         d="m 80.627619,871.39508 c -7.966162,-4.3446 -8.8374,-9.52679 -8.248812,-49.07738 l 0.542011,-36.42757 4.928107,-4.23562 c 4.455717,-3.82955 6.517638,-4.23551 21.515722,-4.23551 h 16.587593 v -31.17584 c 0,-27.80747 0.3736,-31.74505 3.39817,-36.445 1.86554,-2.89801 18.43327,-21.07665 36.81727,-40.39677 l 33.42547,-35.12782 0.0441,-124.70334 0.0441,-124.70333 -41.3377,-31.43602 c -22.73577,-17.28983 -42.09348,-32.84764 -43.01693,-34.57316 -0.97641,-1.8241 -1.67874,-28.9512 -1.67874,-64.81329 0,-67.46748 0.28633,-69.54982 10.12048,-73.62334 3.58815,-1.48632 20.35372,-1.93187 58.87522,-1.56465 66.69209,0.6363 61.57964,-1.8548 62.43739,30.41583 l 0.58222,21.91097 h 29.71523 29.71524 v -18.49843 c 0,-21.47704 2.33989,-29.04082 9.95966,-32.19704 3.76809,-1.5609 22.38841,-1.98914 70.42464,-1.61995 79.96413,0.61411 73.01433,-2.24529 73.88189,30.40445 l 0.58221,21.91097 h 29.71549 29.71523 V 211.7758 c 0,-21.80097 1.99767,-27.99017 10.12048,-31.35471 3.58816,-1.48632 20.35397,-1.93187 58.87547,-1.56465 53.37274,0.50902 53.89441,0.54912 57.85641,4.51215 3.99485,3.99537 3.99877,4.05442 4.50058,68.2719 0.41502,53.11296 0.0686,64.9223 -1.9837,68.01299 -1.36814,2.05702 -20.75306,17.57145 -43.0792,34.47675 l -40.5932,30.73667 v 124.70333 124.70334 l 35.31969,37.72925 c 19.42585,20.75102 36.0208,39.5738 36.87806,41.82845 0.85751,2.25458 1.55862,17.4102 1.55862,33.67898 v 29.57955 l 17.51864,0.60307 c 26.56221,0.91564 25.51276,-1.0609 25.51276,48.02633 0,38.68114 -0.0686,39.4961 -4.00049,43.42145 l -4.00049,4.0007 -289.31587,0.37917 c -247.54109,0.32255 -289.978258,0 -293.90351,-2.12456 l -0.0098,-8.8e-4 z"
         style="display:inline;fill:#ffffff"
         id="path3183"
         sodipodi:nodetypes="cccccccscccccsssscccccsscccccssssscccccscccsccccc"
         inkscape:connector-curvature="0" />
    </g>
    <text
       xml:space="preserve"
       style="font-style:normal;font-variant:normal;font-weight:bold;font-stretch:normal;font-size:12.69999981px;line-height:1.25;font-family:sans-serif;-inkscape-font-specification:'sans-serif, Bold';font-variant-ligatures:normal;font-variant-caps:normal;font-variant-numeric:normal;font-feature-settings:normal;text-align:start;letter-spacing:0px;word-spacing:0px;writing-mode:lr-tb;text-anchor:start;fill:#ffffff;fill-opacity:1;stroke:none;stroke-width:0.26458332"
       x="17.991665"
       y="290.91458"
       id="text826"><tspan
         sodipodi:role="line"
         id="tspan824"
         x="17.991665"
         y="290.91458"
         style="font-style:normal;font-variant:normal;font-weight:bold;font-stretch:normal;font-size:12.69999981px;font-family:sans-serif;-inkscape-font-specification:'sans-serif, Bold';font-variant-ligatures:normal;font-variant-caps:normal;font-variant-numeric:normal;font-feature-settings:normal;text-align:start;writing-mode:lr-tb;text-anchor:start;fill:#ffffff;stroke-width:0.26458332">source</tspan></text>
    <text
       xml:space="preserve"
       style="font-style:normal;font-variant:normal;font-weight:bold;font-stretch:normal;font-size:12.69999981px;line-height:1.25;font-family:sans-serif;-inkscape-font-specification:'sans-serif, Bold';font-variant-ligatures:normal;font-variant-caps:normal;font-variant-numeric:normal;font-feature-settings:normal;text-align:start;letter-spacing:0px;word-spacing:0px;writing-mode:lr-tb;text-anchor:start;fill:#ffffff;fill-opacity:1;stroke:none;stroke-width:0.26458332"
       x="146.57916"
       y="287.47498"
       id="text830"><tspan
         sodipodi:role="line"
         id="tspan828"
         x="146.57916"
         y="287.47498"
         style="font-style:normal;font-variant:normal;font-weight:bold;font-stretch:normal;font-size:12.69999981px;font-family:sans-serif;-inkscape-font-specification:'sans-serif, Bold';font-variant-ligatures:normal;font-variant-caps:normal;font-variant-numeric:normal;font-feature-settings:normal;text-align:start;writing-mode:lr-tb;text-anchor:start;fill:#ffffff;stroke-width:0.26458332">user </tspan></text>
    <text
       xml:space="preserve"
       style="font-style:normal;font-variant:normal;font-weight:bold;font-stretch:normal;font-size:12.69999981px;line-height:1.25;font-family:sans-serif;-inkscape-font-specification:'sans-serif, Bold';font-variant-ligatures:normal;font-variant-caps:normal;font-variant-numeric:normal;font-feature-settings:normal;text-align:start;letter-spacing:0px;word-spacing:0px;writing-mode:lr-tb;text-anchor:start;fill:#ffffff;fill-opacity:1;stroke:none;stroke-width:0.26458332"
       x="251.2242"
       y="289.61334"
       id="text834"><tspan
         sodipodi:role="line"
         id="tspan832"
         x="251.2242"
         y="289.61334"
         style="font-style:normal;font-variant:normal;font-weight:bold;font-stretch:normal;font-size:12.69999981px;font-family:sans-serif;-inkscape-font-specification:'sans-serif, Bold';font-variant-ligatures:normal;font-variant-caps:normal;font-variant-numeric:normal;font-feature-settings:normal;text-align:start;writing-mode:lr-tb;text-anchor:start;fill:#ffffff;stroke-width:0.26458332">verifier</tspan></text>
  </g>
</svg>
