<?xml version="1.0" encoding="UTF-8" standalone="no"?>
<!-- Created with Inkscape (http://www.inkscape.org/) -->

<svg
   xmlns:dc="http://purl.org/dc/elements/1.1/"
   xmlns:cc="http://creativecommons.org/ns#"
   xmlns:rdf="http://www.w3.org/1999/02/22-rdf-syntax-ns#"
   xmlns:svg="http://www.w3.org/2000/svg"
   xmlns="http://www.w3.org/2000/svg"
   xmlns:sodipodi="http://sodipodi.sourceforge.net/DTD/sodipodi-0.dtd"
   xmlns:inkscape="http://www.inkscape.org/namespaces/inkscape"
   width="315mm"
   height="91mm"
   viewBox="0 0 315 91"
   version="1.1"
   id="svg8"
   inkscape:version="0.92.2 (5c3e80d, 2017-08-06)"
   sodipodi:docname="img2.svg">
  <defs
     id="defs2">
    <inkscape:path-effect
       effect="skeletal"
       id="path-effect5998"
       is_visible="true"
       pattern="M 0,5 C 0,2.24 2.24,0 5,0 7.76,0 10,2.24 10,5 10,7.76 7.76,10 5,10 2.24,10 0,7.76 0,5 Z"
       copytype="single_stretched"
       prop_scale="0.26458334"
       scale_y_rel="false"
       spacing="0"
       normal_offset="0"
       tang_offset="0"
       prop_units="false"
       vertical_pattern="false"
       fuse_tolerance="0" />
    <inkscape:path-effect
       effect="skeletal"
       id="path-effect5994"
       is_visible="true"
       pattern="M 0,5 C 0,2.24 2.24,0 5,0 7.76,0 10,2.24 10,5 10,7.76 7.76,10 5,10 2.24,10 0,7.76 0,5 Z"
       copytype="single_stretched"
       prop_scale="0.26458334"
       scale_y_rel="false"
       spacing="0"
       normal_offset="0"
       tang_offset="0"
       prop_units="false"
       vertical_pattern="false"
       fuse_tolerance="0" />
    <inkscape:path-effect
       effect="skeletal"
       id="path-effect5990"
       is_visible="true"
       pattern="M 0,5 C 0,2.24 2.24,0 5,0 7.76,0 10,2.24 10,5 10,7.76 7.76,10 5,10 2.24,10 0,7.76 0,5 Z"
       copytype="single_stretched"
       prop_scale="0.26458334"
       scale_y_rel="false"
       spacing="0"
       normal_offset="0"
       tang_offset="0"
       prop_units="false"
       vertical_pattern="false"
       fuse_tolerance="0" />
    <inkscape:path-effect
       effect="skeletal"
       id="path-effect5986"
       is_visible="true"
       pattern="M 0,5 C 0,2.24 2.24,0 5,0 7.76,0 10,2.24 10,5 10,7.76 7.76,10 5,10 2.24,10 0,7.76 0,5 Z"
       copytype="single_stretched"
       prop_scale="0.26458334"
       scale_y_rel="false"
       spacing="0"
       normal_offset="0"
       tang_offset="0"
       prop_units="false"
       vertical_pattern="false"
       fuse_tolerance="0" />
    <inkscape:perspective
       id="perspective2895"
       inkscape:persp3d-origin="372.04724 : 350.78746 : 1"
       inkscape:vp_z="744.09448 : 526.18111 : 1"
       inkscape:vp_y="0 : 1000.0001 : 0"
       inkscape:vp_x="0 : 526.18111 : 1"
       sodipodi:type="inkscape:persp3d" />
    <inkscape:perspective
       sodipodi:type="inkscape:persp3d"
       inkscape:vp_x="0 : 0.50000003 : 1"
       inkscape:vp_y="0 : 1000.0001 : 0"
       inkscape:vp_z="1 : 0.50000003 : 1"
       inkscape:persp3d-origin="0.5 : 0.3333334 : 1"
       id="perspective2905" />
  </defs>
  <sodipodi:namedview
     id="base"
     pagecolor="#ffffff"
     bordercolor="#666666"
     borderopacity="1.0"
     inkscape:pageopacity="0"
     inkscape:pageshadow="2"
     inkscape:zoom="1"
     inkscape:cx="583.30266"
     inkscape:cy="235.37301"
     inkscape:document-units="mm"
     inkscape:current-layer="layer1"
     showgrid="true"
     inkscape:snap-bbox="true"
     showborder="true"
     inkscape:pagecheckerboard="true"
     height="209mm"
     inkscape:window-width="1920"
     inkscape:window-height="1046"
     inkscape:window-x="-11"
     inkscape:window-y="-11"
     inkscape:window-maximized="1">
    <inkscape:grid
       type="xygrid"
       id="grid10" />
  </sodipodi:namedview>
  <metadata
     id="metadata5">
    <rdf:RDF>
      <cc:Work
         rdf:about="">
        <dc:format>image/svg+xml</dc:format>
        <dc:type
           rdf:resource="http://purl.org/dc/dcmitype/StillImage" />
        <dc:title></dc:title>
      </cc:Work>
    </rdf:RDF>
  </metadata>
  <g
     inkscape:label="Layer 1"
     inkscape:groupmode="layer"
     id="layer1"
     transform="translate(0,-206)">
    <path
       style="fill:#ffffff;stroke-width:0.22137991"
       d="m 97.893557,228.4175 v 68.79166 L 134.93979,274.5825 v -68.79166 z m 18.523113,-2.05292 c 6.13485,-3.74698 11.11387,-6.19533 11.11387,-5.46508 0,0.73025 -4.97902,4.36394 -11.11387,8.11092 -6.13486,3.74698 -11.11387,6.19533 -11.11387,5.46508 0,-0.73025 4.97901,-4.36394 11.11387,-8.11092 z m 0,15.875 c 8.17981,-4.99597 14.81849,-8.458 14.81849,-7.72775 0,0.73025 -6.63868,5.37761 -14.81849,10.37358 -8.17981,4.99597 -14.81849,8.45801 -14.81849,7.72776 0,-0.73025 6.63868,-5.37762 14.81849,-10.37359 z m -2.77847,6.98867 c 5.62362,-3.43473 10.18772,-5.62967 10.18772,-4.89942 0,0.73025 -4.5641,4.11052 -10.18772,7.54525 -5.62361,3.43473 -10.18771,5.62966 -10.18771,4.89941 0,-0.73025 4.5641,-4.11051 10.18771,-7.54524 z m 1.85232,4.16033 c 6.64609,-4.05923 12.04002,-6.761 12.04002,-6.03075 0,0.73025 -5.39393,4.61736 -12.04002,8.67659 -6.6461,4.05922 -12.04003,6.76099 -12.04003,6.03074 0,-0.73025 5.39393,-4.61736 12.04003,-8.67658 z m 11.31103,10.01767 1.90839,4.08578 3.57945,-3.44351 -2.90654,5.99048 1.94312,3.28735 -3.70462,-0.38317 -2.3787,5.47481 0.61683,-6.22703 -3.41303,0.0961 4.08594,-3.46501 z"
       id="rect3701"
       inkscape:connector-curvature="0" />
    <path
       style="fill:#ffffff;fill-opacity:1;stroke-width:0.33033416"
       d="m 38.256062,233.27417 c -0.162431,0.002 -0.325395,0.01 -0.487826,0.0196 v -5.1e-4 c -2.59888,0.17092 -5.177832,1.41167 -7.114812,3.68194 l -1.549257,1.81643 -2.415358,0.006 c -2.233239,0.006 -2.465617,-0.0582 -3.098519,-0.85472 -2.635189,-3.31618 -5.097333,-4.63698 -8.603091,-4.61626 -3.15467,0.0187 -4.411012,0.6781 -8.1912329,4.30413 -3.7704686,3.61671 -3.8644989,3.90692 -1.8639684,5.74177 0.6065811,0.55632 1.6197183,1.83054 2.2520592,2.83135 1.2930002,2.0464 3.0452511,3.2807 5.4968221,3.87263 v 0.001 c 2.696271,0.65102 6.406396,-0.0196 8.358145,-1.50946 1.28896,-0.98397 3.107049,-3.59764 3.609599,-5.18884 0.635942,-2.01346 1.249741,-2.68619 2.282031,-2.5032 0.91675,0.16249 1.164498,0.50882 1.810227,2.53008 1.117009,3.49646 3.997195,6.0667 7.672916,6.84764 1.479219,0.31427 2.153767,0.29042 4.060217,-0.14263 2.916409,-0.66243 4.586792,-1.87548 6.170683,-4.48241 0.678919,-1.11739 1.610845,-2.30412 2.070674,-2.63705 1.579021,-1.14325 1.459514,-1.96176 -0.568957,-3.89899 -1.004829,-0.95963 -2.420591,-2.33641 -3.146062,-3.06027 -1.88893,-1.88471 -4.307861,-2.79268 -6.74429,-2.75798 z m -0.146762,1.13379 c 3.498001,0 6.089279,1.47323 7.501869,4.26537 1.85516,3.66694 0.215048,8.1915 -3.612184,9.96528 -5.92014,2.74373 -12.808673,-1.69327 -11.943972,-7.69307 0.58138,-4.03402 3.666426,-6.53758 8.054287,-6.53758 z m -23.135021,0.01 c 0.229219,-9e-4 0.46287,0.005 0.701249,0.016 1.90694,0.0913 2.719319,0.29833 3.890719,0.9896 1.63653,0.96576 3.512447,3.40652 3.512447,4.57078 0,0.41193 0.127908,0.67628 0.284737,0.58704 0.509061,-0.28958 -0.257757,3.58618 -0.960149,4.85345 -0.90718,1.63672 -2.89728,3.10568 -4.982642,3.67833 -2.162648,0.59388 -2.70575,0.57789 -5.01623,-0.15245 -4.5821887,-1.4484 -6.7612176,-6.24203 -4.6942874,-10.32753 1.4185001,-2.80383 3.8260074,-4.20189 7.2641564,-4.21525 z m 17.260446,18.90479 c -1.286611,-0.007 -3.767524,1.2779 -4.638996,2.40141 l -0.741555,0.95601 -1.65313,-1.43867 c -3.496879,-3.0433 -5.535679,-2.48515 -10.278959,2.81378 -4.669758,5.21679 -5.4929406,5.84381 -7.7039207,5.87148 -1.5478601,0.0195 -1.9665394,-0.16215 -2.5156106,-1.09193 -0.362339,-0.61352 -0.6583574,-1.5758 -0.6583574,-2.13888 0,-1.30152 0.8896164,-3.06076 1.843815,-3.64371 0.5705211,-0.34855 0.4275508,-0.39649 -0.6309677,-0.21394 -1.4382803,0.24803 -2.4184874,1.49048 -2.6851081,3.40444 -0.2185299,1.56883 0.6458056,4.53128 1.6422767,5.6286 1.053121,1.15969 3.605985,2.4751 5.9133338,3.04788 2.154921,0.53492 6.157921,0.19559 8.809281,-0.74724 2.379681,-0.84622 5.905331,-3.13985 7.057451,-4.59146 l 0.774629,-0.97616 0.774631,0.99477 c 1.079759,1.38707 4.673502,3.76254 6.894152,4.55631 9.405811,3.36204 18.50776,-1.92818 16.050699,-9.32863 -0.41834,-1.26 -1.632209,-2.20457 -2.81895,-2.19366 -0.728937,0.007 -0.724442,0.0305 0.102838,0.60461 1.26981,0.88137 1.88386,2.90522 1.384412,4.55993 -0.679091,2.24991 -2.493087,2.90132 -4.853967,1.74304 -1.244322,-0.6105 -6.270111,-5.60346 -7.21093,-7.1639 -0.68254,-1.132 -3.729858,-3.04837 -4.857067,-3.05408 z"
       id="path6179"
       inkscape:connector-curvature="0" />
    <g
       id="layer1-9"
       inkscape:label="Calque 1"
       transform="matrix(0.09524447,0,0,0.09524447,214.77563,101.65145)"
       style="fill:#ffffff">
      <path
         d="m 80.627619,871.39508 c -7.966162,-4.3446 -8.8374,-9.52679 -8.248812,-49.07738 l 0.542011,-36.42757 4.928107,-4.23562 c 4.455717,-3.82955 6.517638,-4.23551 21.515722,-4.23551 h 16.587593 v -31.17584 c 0,-27.80747 0.3736,-31.74505 3.39817,-36.445 1.86554,-2.89801 18.43327,-21.07665 36.81727,-40.39677 l 33.42547,-35.12782 0.0441,-124.70334 0.0441,-124.70333 -41.3377,-31.43602 c -22.73577,-17.28983 -42.09348,-32.84764 -43.01693,-34.57316 -0.97641,-1.8241 -1.67874,-28.9512 -1.67874,-64.81329 0,-67.46748 0.28633,-69.54982 10.12048,-73.62334 3.58815,-1.48632 20.35372,-1.93187 58.87522,-1.56465 66.69209,0.6363 61.57964,-1.8548 62.43739,30.41583 l 0.58222,21.91097 h 29.71523 29.71524 v -18.49843 c 0,-21.47704 2.33989,-29.04082 9.95966,-32.19704 3.76809,-1.5609 22.38841,-1.98914 70.42464,-1.61995 79.96413,0.61411 73.01433,-2.24529 73.88189,30.40445 l 0.58221,21.91097 h 29.71549 29.71523 V 211.7758 c 0,-21.80097 1.99767,-27.99017 10.12048,-31.35471 3.58816,-1.48632 20.35397,-1.93187 58.87547,-1.56465 53.37274,0.50902 53.89441,0.54912 57.85641,4.51215 3.99485,3.99537 3.99877,4.05442 4.50058,68.2719 0.41502,53.11296 0.0686,64.9223 -1.9837,68.01299 -1.36814,2.05702 -20.75306,17.57145 -43.0792,34.47675 l -40.5932,30.73667 v 124.70333 124.70334 l 35.31969,37.72925 c 19.42585,20.75102 36.0208,39.5738 36.87806,41.82845 0.85751,2.25458 1.55862,17.4102 1.55862,33.67898 v 29.57955 l 17.51864,0.60307 c 26.56221,0.91564 25.51276,-1.0609 25.51276,48.02633 0,38.68114 -0.0686,39.4961 -4.00049,43.42145 l -4.00049,4.0007 -289.31587,0.37917 c -247.54109,0.32255 -289.978258,0 -293.90351,-2.12456 l -0.0098,-8.8e-4 z"
         style="display:inline;fill:#ffffff"
         id="path3183"
         sodipodi:nodetypes="cccccccscccccsssscccccsscccccssssscccccscccsccccc"
         inkscape:connector-curvature="0" />
    </g>
    <path
       style="fill:#ffffff;fill-opacity:1;stroke-width:2.71953988;stroke-miterlimit:4;stroke-dasharray:none"
       d="m 54.985617,226.87448 v 68.79166 l 37.16697,-19.54061 v -68.79167 z m 24.48386,-6.27957 3.16497,-1.66399 v 1.36426 l -0.88561,0.46561 v 4.96611 l 0.88561,-0.46561 v 1.36425 l -3.16497,1.66399 v -1.36426 l 0.88561,-0.46561 v -4.9661 l -0.88561,0.46561 z m 4.30828,-2.26508 1.95996,-1.03046 c 0.44039,-0.23153 0.82027,-0.37786 1.13968,-0.43899 0.3194,-0.0646 0.58799,-0.0576 0.80576,0.0208 0.37263,0.12792 0.66542,0.41152 0.87835,0.85079 0.21535,0.43454 0.32303,1.02389 0.32303,1.76803 0,0.71658 -0.11494,1.41952 -0.34481,2.10881 -0.22986,0.68585 -0.52024,1.27259 -0.87109,1.76023 -0.26375,0.36604 -0.5529,0.67654 -0.86746,0.93149 -0.31456,0.25495 -0.6872,0.49565 -1.11791,0.7221 l -1.90551,1.00183 z m 1.39375,0.70383 v 4.81625 l 0.35206,-0.1851 c 0.33151,-0.17429 0.57469,-0.32281 0.72954,-0.44557 0.15487,-0.12621 0.3061,-0.28495 0.4537,-0.47624 0.25407,-0.34029 0.44039,-0.71385 0.55895,-1.1207 0.11857,-0.41029 0.17785,-0.87037 0.17785,-1.38024 0,-0.50643 -0.0653,-0.90444 -0.196,-1.19404 -0.12824,-0.29431 -0.33271,-0.46931 -0.61339,-0.525 -0.14276,-0.0249 -0.28915,-0.0151 -0.43918,0.0294 -0.1476,0.0397 -0.37142,0.13844 -0.67146,0.29618 z m -14.69242,7.99846 c 0.66299,-0.34857 1.16145,-0.3712 1.49537,-0.0679 0.33392,0.29986 0.50088,0.89766 0.50088,1.79338 v 0.65113 l -2.99075,1.57239 c 0.0194,0.44457 0.14034,0.72892 0.36296,0.85304 0.22502,0.12284 0.55532,0.0698 0.99086,-0.15922 0.27585,-0.14502 0.54323,-0.35622 0.80213,-0.63359 0.25891,-0.27737 0.46338,-0.53646 0.61339,-0.77725 l 0.14519,-0.0763 v 1.49345 c -0.2952,0.32401 -0.57347,0.59261 -0.8348,0.8058 -0.26133,0.21319 -0.55048,0.40311 -0.86747,0.56976 -0.81785,0.42999 -1.44456,0.49765 -1.8801,0.20299 -0.43554,-0.29467 -0.65332,-0.92604 -0.65332,-1.89411 0,-0.95774 0.20567,-1.82379 0.61703,-2.59816 0.41376,-0.77909 0.97997,-1.35756 1.69863,-1.73539 z m -4.6059,2.44224 c 0.30488,-0.1603 0.59645,-0.26881 0.87472,-0.32553 0.28068,-0.0615 0.49966,-0.0836 0.65694,-0.0663 v 1.46761 l -0.11251,0.0592 c -0.19358,-0.0877 -0.41498,-0.12461 -0.66421,-0.11071 -0.24681,0.009 -0.49725,0.0806 -0.75132,0.21414 -0.21051,0.11068 -0.38836,0.24552 -0.53354,0.40454 -0.14276,0.15774 -0.21414,0.3124 -0.21414,0.46398 0,0.13781 0.0327,0.22571 0.098,0.26371 0.0653,0.038 0.21898,0.0296 0.46095,-0.0253 0.13308,-0.0321 0.27584,-0.0692 0.42828,-0.11148 0.15487,-0.047 0.30972,-0.0836 0.46459,-0.1099 0.34359,-0.0532 0.59766,0.0148 0.7622,0.20388 0.16454,0.18566 0.24681,0.48347 0.24681,0.89344 0,0.59944 -0.18873,1.18271 -0.56621,1.74979 -0.37747,0.56364 -0.89408,1.01783 -1.54981,1.36259 -0.36296,0.19082 -0.69204,0.31561 -0.98724,0.37435 -0.29521,0.0587 -0.53234,0.0766 -0.7114,0.0536 v -1.52962 l 0.11978,-0.063 c 0.0653,0.0311 0.14034,0.064 0.22503,0.0987 0.0871,0.03 0.20931,0.0484 0.36659,0.0553 0.1355,0.008 0.28915,-0.004 0.46095,-0.0356 0.1718,-0.0352 0.3557,-0.10433 0.55169,-0.20737 0.25649,-0.13485 0.44643,-0.27434 0.56984,-0.41845 0.12341,-0.14757 0.18511,-0.30058 0.18511,-0.45906 0,-0.14125 -0.0363,-0.2238 -0.10889,-0.24764 -0.0726,-0.0273 -0.21051,-0.0168 -0.41377,0.0315 -0.0968,0.0199 -0.22866,0.0565 -0.39562,0.10982 -0.16454,0.0486 -0.31456,0.0827 -0.45006,0.10226 -0.37022,0.0568 -0.64485,-0.0124 -0.82391,-0.20762 -0.17906,-0.19869 -0.26859,-0.51508 -0.26859,-0.94916 0,-0.5581 0.18511,-1.11879 0.55533,-1.68206 0.37263,-0.56798 0.88076,-1.02117 1.52441,-1.35956 z m 10.16999,-5.20738 c 0.046,-0.0242 0.098,-0.0498 0.15608,-0.0769 0.0581,-0.0271 0.10888,-0.0486 0.15244,-0.0646 v 1.7725 l -0.11615,0.0611 c -0.0556,0.002 -0.14518,0.0281 -0.26859,0.0792 -0.1234,0.0511 -0.22623,0.0983 -0.30851,0.14153 -0.18631,0.098 -0.35086,0.20169 -0.49362,0.3112 -0.14276,0.10951 -0.29641,0.24886 -0.46095,0.41805 v 3.88607 l -1.30664,0.68697 v -5.80327 l 1.30664,-0.68697 v 0.85267 c 0.28795,-0.50279 0.53839,-0.86701 0.75132,-1.09264 0.21293,-0.22909 0.40893,-0.3907 0.58798,-0.48484 z m -17.32747,9.13063 1.3139,-0.69078 v 2.87837 c 0,0.29284 0.006,0.53426 0.0181,0.72427 0.0145,0.18529 0.046,0.32895 0.0944,0.43097 0.046,0.1033 0.11493,0.16006 0.20688,0.17029 0.0944,0.009 0.22503,-0.0305 0.39199,-0.11824 0.11131,-0.0585 0.23471,-0.15269 0.37022,-0.28249 0.1355,-0.12981 0.26616,-0.28464 0.39199,-0.46448 v -4.11344 l 1.30664,-0.68697 v 5.80326 l -1.30664,0.68697 v -0.64079 c -0.24197,0.38905 -0.46337,0.70527 -0.66421,0.94866 -0.20084,0.23995 -0.44038,0.43307 -0.71865,0.57937 -0.45007,0.23662 -0.7973,0.23487 -1.04168,-0.005 -0.24197,-0.24141 -0.36295,-0.72213 -0.36295,-1.44215 z m 11.65812,-5.14743 c -0.25165,0.13231 -0.45853,0.33409 -0.62065,0.60536 -0.16212,0.27127 -0.25286,0.61698 -0.27222,1.03713 l 1.695,-0.89116 c -0.007,-0.38547 -0.075,-0.64269 -0.20325,-0.77163 -0.12825,-0.12895 -0.32788,-0.12218 -0.59888,0.0203 z m -11.44035,17.71537 29.73329,-15.63234 v 10.58333 l -29.73329,15.63234 z m 12.66351,10.12767 c 0.74285,-0.39055 1.27881,-0.5087 1.60789,-0.35443 0.3315,0.14955 0.49724,0.57229 0.49724,1.26819 v 3.94809 l -1.29574,0.68124 v -0.61495 c -0.0702,0.11268 -0.15728,0.24978 -0.26133,0.41128 -0.10405,0.1615 -0.20205,0.29743 -0.29399,0.40778 -0.12825,0.15011 -0.26133,0.28036 -0.39926,0.39077 -0.13792,0.11386 -0.28915,0.21404 -0.45369,0.30055 -0.38715,0.20354 -0.71139,0.20348 -0.97272,-1.9e-4 -0.26133,-0.20367 -0.39199,-0.57078 -0.39199,-1.10132 0,-0.42375 0.0665,-0.80497 0.19963,-1.14365 0.13308,-0.33869 0.32182,-0.64979 0.56621,-0.93331 0.24197,-0.28224 0.54201,-0.55024 0.90012,-0.80397 0.35812,-0.25374 0.72954,-0.49725 1.11428,-0.73053 v -0.031 c 0,-0.3204 -0.0919,-0.49254 -0.27585,-0.51644 -0.1839,-0.0273 -0.45491,0.0531 -0.81302,0.24141 -0.21536,0.11323 -0.44522,0.28921 -0.68961,0.52794 -0.24439,0.23528 -0.41982,0.4102 -0.52629,0.52474 l -0.11977,0.063 v -1.40043 c 0.13792,-0.12419 0.36174,-0.30215 0.67146,-0.53389 0.31215,-0.23646 0.62428,-0.43674 0.93643,-0.60085 z m -4.21029,2.21873 c 0.50815,-0.26715 0.90255,-0.20924 1.18324,0.17373 0.2831,0.3817 0.42466,1.03592 0.42466,1.96265 0,0.47886 -0.0521,0.94202 -0.15607,1.38947 -0.10163,0.44617 -0.23592,0.84061 -0.40288,1.18333 -0.17422,0.36031 -0.37143,0.66725 -0.59162,0.92082 -0.22019,0.25358 -0.45611,0.44651 -0.70776,0.57882 -0.23229,0.12213 -0.4295,0.18963 -0.59162,0.20252 -0.16212,0.0163 -0.32787,0.005 -0.49725,-0.0331 v 2.41846 l -1.30664,0.68697 v -7.93233 l 1.30664,-0.68697 v 0.60461 c 0.20084,-0.33296 0.4053,-0.62477 0.6134,-0.87543 0.21051,-0.25193 0.45248,-0.44976 0.7259,-0.59352 z m 9.34247,-4.91182 c 0.30488,-0.16029 0.59645,-0.2688 0.87472,-0.32553 0.28069,-0.0614 0.49967,-0.0836 0.65695,-0.0663 v 1.46761 l -0.11251,0.0592 c -0.19358,-0.0877 -0.41498,-0.12461 -0.66421,-0.11071 -0.24681,0.009 -0.49725,0.0806 -0.75132,0.21414 -0.21051,0.11067 -0.38836,0.24552 -0.53354,0.40453 -0.14277,0.15774 -0.21415,0.3124 -0.21415,0.46399 0,0.1378 0.0327,0.2257 0.098,0.2637 0.0653,0.038 0.21898,0.0296 0.46095,-0.0253 0.13309,-0.0321 0.27585,-0.0692 0.42829,-0.11148 0.15486,-0.047 0.30972,-0.0836 0.46458,-0.1099 0.3436,-0.0532 0.59767,0.0148 0.76221,0.20389 0.16454,0.18565 0.24681,0.48346 0.24681,0.89343 0,0.59944 -0.18874,1.18271 -0.56621,1.74979 -0.37747,0.56364 -0.89408,1.01784 -1.54982,1.36259 -0.36296,0.19083 -0.69203,0.31561 -0.98724,0.37435 -0.2952,0.0587 -0.53233,0.0766 -0.71139,0.0536 v -1.52969 l 0.11977,-0.063 c 0.0653,0.0311 0.14035,0.064 0.22504,0.0987 0.0871,0.03 0.2093,0.0484 0.36658,0.0553 0.1355,0.008 0.28916,-0.004 0.46096,-0.0356 0.17179,-0.0352 0.35569,-0.10432 0.55169,-0.20737 0.25648,-0.13485 0.44643,-0.27433 0.56984,-0.41845 0.1234,-0.14756 0.1851,-0.30058 0.1851,-0.45905 0,-0.14125 -0.0363,-0.2238 -0.10888,-0.24765 -0.0726,-0.0273 -0.21052,-0.0168 -0.41377,0.0315 -0.0968,0.0199 -0.22866,0.0565 -0.39562,0.10981 -0.16454,0.0486 -0.31456,0.0827 -0.45007,0.10226 -0.37021,0.0568 -0.64485,-0.0124 -0.8239,-0.20761 -0.17906,-0.1987 -0.26859,-0.51508 -0.26859,-0.94916 0,-0.55811 0.18511,-1.1188 0.55532,-1.68206 0.37263,-0.56799 0.88077,-1.02117 1.52441,-1.35957 z m 4.41353,-2.32042 c 0.30488,-0.1603 0.59646,-0.26881 0.87472,-0.32553 0.2807,-0.0614 0.49968,-0.0836 0.65696,-0.0663 v 1.46761 l -0.11252,0.0591 c -0.19358,-0.0877 -0.41498,-0.12461 -0.66421,-0.11071 -0.24681,0.009 -0.49724,0.0806 -0.75131,0.21414 -0.21052,0.11068 -0.38837,0.24552 -0.53355,0.40454 -0.14276,0.15774 -0.21415,0.3124 -0.21415,0.46398 0,0.13781 0.0327,0.22571 0.098,0.26371 0.0653,0.038 0.21899,0.0296 0.46096,-0.0253 0.13308,-0.0321 0.27584,-0.0692 0.42828,-0.11148 0.15486,-0.047 0.30973,-0.0836 0.46458,-0.1099 0.34361,-0.0532 0.59767,0.0148 0.76221,0.20388 0.16454,0.18566 0.24681,0.48347 0.24681,0.89344 0,0.59944 -0.18873,1.18271 -0.5662,1.74979 -0.37748,0.56363 -0.89409,1.01783 -1.54983,1.36259 -0.36295,0.19082 -0.69203,0.31561 -0.98724,0.37435 -0.2952,0.0587 -0.53233,0.0766 -0.71138,0.0536 v -1.52962 l 0.11977,-0.063 c 0.0653,0.0311 0.14034,0.064 0.22503,0.0987 0.0871,0.03 0.2093,0.0484 0.36658,0.0553 0.13551,0.008 0.28916,-0.004 0.46096,-0.0356 0.1718,-0.0352 0.35569,-0.10433 0.55169,-0.20737 0.25649,-0.13485 0.44643,-0.27434 0.56984,-0.41845 0.12341,-0.14757 0.1851,-0.30059 0.1851,-0.45906 0,-0.14125 -0.0363,-0.2238 -0.10888,-0.24764 -0.0726,-0.0273 -0.21051,-0.0168 -0.41377,0.0315 -0.0968,0.0199 -0.22866,0.0565 -0.39562,0.10982 -0.16453,0.0486 -0.31456,0.0827 -0.45007,0.10226 -0.37021,0.0568 -0.64484,-0.0124 -0.8239,-0.20762 -0.17906,-0.19869 -0.26859,-0.51508 -0.26859,-0.94916 0,-0.55811 0.18511,-1.11879 0.55532,-1.68206 0.37264,-0.56798 0.88078,-1.02117 1.52441,-1.35956 z m -14.34035,8.94507 c -0.12341,0.0649 -0.25044,0.15923 -0.3811,0.28305 -0.13066,0.12037 -0.25528,0.26168 -0.37385,0.42392 v 2.91972 c 0.0871,0.002 0.18027,-0.0155 0.27948,-0.0539 0.0992,-0.0384 0.19721,-0.083 0.29399,-0.1339 0.34602,-0.18191 0.60372,-0.46037 0.7731,-0.83537 0.16938,-0.37844 0.25406,-0.85704 0.25406,-1.43582 0,-0.565 -0.0678,-0.93934 -0.20325,-1.12304 -0.1355,-0.18369 -0.34965,-0.19857 -0.64243,-0.0446 z m 5.60403,-1.11182 c -0.17664,0.11354 -0.3678,0.24332 -0.57347,0.38935 -0.20568,0.14259 -0.36174,0.26598 -0.46822,0.37019 -0.13066,0.12726 -0.23108,0.26619 -0.30125,0.41677 -0.0678,0.14586 -0.10163,0.31009 -0.10163,0.49268 0,0.12058 0.007,0.21494 0.0218,0.2831 0.0145,0.0682 0.0508,0.12143 0.10889,0.1598 0.0556,0.0396 0.1222,0.0563 0.19963,0.0501 0.0774,-0.01 0.19841,-0.0578 0.36295,-0.14431 0.13066,-0.0687 0.26254,-0.17593 0.39562,-0.32169 0.1355,-0.14703 0.25407,-0.30928 0.3557,-0.48673 z m -13.4729,16.15675 29.73329,-15.63234 v 10.58334 l -29.73329,15.63233 z"
       id="rect6223"
       inkscape:connector-curvature="0" />
    <path
       sodipodi:type="star"
       style="fill:#ffffff;fill-opacity:1;stroke-width:2.70000005;stroke-miterlimit:4;stroke-dasharray:none"
       id="path6276"
       sodipodi:sides="3"
       sodipodi:cx="133.61458"
       sodipodi:cy="160.80911"
       sodipodi:r1="29.104166"
       sodipodi:r2="14.552083"
       sodipodi:arg1="0"
       sodipodi:arg2="1.0471976"
       inkscape:flatsided="true"
       inkscape:rounded="0"
       inkscape:randomized="0"
       d="m 162.71874,160.80911 -43.65624,25.20495 0,-50.40989 z"
       inkscape:transform-center-x="-3.9687509"
       inkscape:transform-center-y="1.1868766e-006"
       transform="matrix(0.54545467,0,0,1,80.577634,90.690887)" />
    <g
       transform="matrix(0.21786232,0,0,0.21786232,172.98556,202.86423)"
       id="layer1-98"
       inkscape:label="Layer 1">
      <path
         inkscape:connector-curvature="0"
         id="path6315"
         d="m 76.300949,283.01239 c -0.05132,-0.13516 -0.07076,-27.11891 -0.04319,-59.96388 l 0.05013,-59.71813 h 18.404934 18.404937 v 59.91393 59.91393 l -18.361748,0.0499 c -14.586091,0.0397 -18.380932,-5.9e-4 -18.45506,-0.1958 z"
         style="fill:#ffffff;stroke-width:0.19579716" />
      <path
         inkscape:connector-curvature="0"
         id="path6313"
         d="m 128.97033,283.01239 c -0.0514,-0.13516 -0.0708,-20.07021 -0.0432,-44.30011 l 0.0502,-44.05435 h 18.40493 18.40494 v 44.25015 44.25016 l -18.36175,0.0499 c -14.58606,0.0397 -18.38095,-5.9e-4 -18.45512,-0.1958 z"
         style="fill:#ffffff;stroke-width:0.19579716" />
      <path
         inkscape:connector-curvature="0"
         id="path6311"
         d="m 180.07345,283.01239 c -0.0513,-0.13516 -0.0708,-27.11891 -0.0432,-59.96388 l 0.0501,-59.71813 h 52.17995 52.17994 l 0.0496,31.01256 0.0496,31.01255 -1.35259,2.27296 c -0.74391,1.25013 -8.11076,14.16764 -16.37076,28.70558 -8.25998,14.53794 -15.10757,26.54275 -15.21685,26.67736 -0.25843,0.31834 -34.02365,0.36306 -34.02365,0.0451 0,-0.10983 0.20555,-0.52835 0.45675,-0.93004 0.25121,-0.40169 7.6528,-13.38994 16.44797,-28.86277 l 15.99122,-28.13242 -0.05,-18.3694 -0.0499,-18.3694 h -16.64276 -16.64276 l -0.0979,47.38291 -0.0979,47.38291 -18.36174,0.0499 c -14.5861,0.0397 -18.38094,-5.9e-4 -18.45507,-0.1958 z"
         style="fill:#ffffff;stroke-width:0.19579716" />
      <path
         inkscape:connector-curvature="0"
         id="path6309"
         d="m 8.8557582,221.0693 c 0,-0.1744 0.3888604,-0.94583 0.8641341,-1.7143 0.4752737,-0.76847 7.7978397,-13.60027 16.2723657,-28.51512 8.474527,-14.91485 15.497588,-27.22804 15.606803,-27.36265 0.291309,-0.35905 34.081814,-0.35905 33.988941,0 -0.03482,0.13461 -2.549741,4.60613 -5.588719,9.9367 -3.038978,5.33058 -10.409588,18.28256 -16.379135,28.78219 l -10.85372,19.09022 -16.955335,0.05 c -15.517524,0.0458 -16.9553348,0.0231 -16.9553348,-0.26707 z"
         style="fill:#ffffff;stroke-width:0.19579716" />
      <path
         inkscape:connector-curvature="0"
         id="path6305"
         d="m 128.96976,188.05078 c -0.0517,-0.13517 -0.0711,-5.75255 -0.0432,-12.48308 l 0.0508,-12.23732 h 18.40493 18.40494 v 12.43312 12.43312 l -18.36175,0.0499 c -14.58582,0.0397 -18.38106,-5.8e-4 -18.45569,-0.19579 z"
         style="fill:#ffffff;stroke-width:0.19579716" />
    </g>
    <path
       transform="matrix(0.54545467,0,0,1,175.82763,90.690887)"
       inkscape:transform-center-y="1.1868766e-006"
       inkscape:transform-center-x="-3.9687509"
       d="m 162.71874,160.80911 -43.65624,25.20495 0,-50.40989 z"
       inkscape:randomized="0"
       inkscape:rounded="0"
       inkscape:flatsided="true"
       sodipodi:arg2="1.0471976"
       sodipodi:arg1="0"
       sodipodi:r2="14.552083"
       sodipodi:r1="29.104166"
       sodipodi:cy="160.80911"
       sodipodi:cx="133.61458"
       sodipodi:sides="3"
       id="path6343"
       style="fill:#ffffff;fill-opacity:1;stroke-width:2.70000005;stroke-miterlimit:4;stroke-dasharray:none"
       sodipodi:type="star" />
    <g
       id="layer1-4"
       transform="matrix(0.07002811,0,0,0.07531837,274.58021,214.92759)"
       style="fill:#ffffff">
      <path
         style="opacity:1;fill:#ffffff"
         d="M 272.86221,-2.6660421 -27.136718,493.33757 272.86221,669.75113 572.86114,493.33757 Z M 272.76591,353.9931 a 5.3525439,5.3525439 0 0 1 0.21119,0 5.3525439,5.3525439 0 0 1 2.07594,0.46616 l 265.18582,118.9651 a 5.352662,5.352662 0 0 1 -4.3819,9.76741 L 272.85172,365.20299 9.8485517,482.02728 a 5.3526264,5.3526264 0 1 1 -4.344332,-9.78411 L 270.68994,354.45091 a 5.3525439,5.3525439 0 0 1 2.07604,-0.45781 z M -27.138859,552.06966 272.86007,973.80797 572.86103,552.06966 272.86007,727.61555 Z"
         id="path4603"
         inkscape:connector-curvature="0" />
    </g>
  </g>
</svg>
